<?xml version="1.0" encoding="UTF-8" standalone="no"?>
<!-- Created with Inkscape (http://www.inkscape.org/) -->

<svg
   width="210.49814mm"
   height="208.86276mm"
   viewBox="0 0 210.49814 208.86276"
   version="1.1"
   id="svg1"
   xml:space="preserve"
   inkscape:version="1.3 (0e150ed6c4, 2023-07-21)"
   sodipodi:docname="roraima.svg"
   xmlns:inkscape="http://www.inkscape.org/namespaces/inkscape"
   xmlns:sodipodi="http://sodipodi.sourceforge.net/DTD/sodipodi-0.dtd"
   xmlns="http://www.w3.org/2000/svg"
   xmlns:svg="http://www.w3.org/2000/svg"><sodipodi:namedview
     id="namedview1"
     pagecolor="#ffffff"
     bordercolor="#000000"
     borderopacity="0.25"
     inkscape:showpageshadow="2"
     inkscape:pageopacity="0.0"
     inkscape:pagecheckerboard="0"
     inkscape:deskcolor="#d1d1d1"
     inkscape:document-units="mm"
     inkscape:zoom="0.45344416"
     inkscape:cx="1841.4616"
     inkscape:cy="620.80411"
     inkscape:window-width="1366"
     inkscape:window-height="705"
     inkscape:window-x="1358"
     inkscape:window-y="-5"
     inkscape:window-maximized="1"
     inkscape:current-layer="layer1" /><defs
     id="defs1" /><g
     inkscape:label="Capa 1"
     inkscape:groupmode="layer"
     id="layer1"
     transform="translate(-0.74186488,-0.90618314)"><g
       id="g58"><path
         id="rect6"
         style="fill:#060608;fill-opacity:1;stroke-width:0.982843"
         d="M 0.74186491,0.90618317 V 209.76897 H 211.24001 V 0.90618317 Z" /><g
         id="g5"
         transform="matrix(5.0920766,0,0,5.0920766,-1593.9704,-483.41009)"
         style="fill:#ffffff;fill-opacity:1"><path
           style="fill:#ffffff;fill-opacity:1;stroke-width:0.529167"
           d="m 313.46883,122.23119 9.69597,-3.40391 0.92835,-1.54723 v -1.85668 c 0,0 0.10316,-0.72204 0.51575,-1.23778 0.41259,-0.51574 1.34094,-2.16613 1.34094,-2.16613 l 0.20629,-6.18891 0.10314,-2.47557 1.44409,-0.92834 1.03148,-1.03149 1.95982,-0.41259 h 2.68187 l 2.06298,1.03149 1.03148,1.65037 -0.82518,2.37242 0.61889,1.23779 0.92834,0.61889 h 1.44407 l 0.41259,1.03149 0.30946,1.23778 1.03147,1.75353 1.85669,1.44408 1.65037,0.51574 2.06298,1.65038 1.65039,0.51574 2.57871,2.57872 0.92834,3.09446 1.03148,3.19761 1.4441,1.44408 0.51572,0.92834 -2.68187,-1.75353 -0.82518,-1.95982 -0.82518,-3.09446 -1.65039,-1.95983 -1.65037,-0.51574 c 0,0 -3.40392,1.75353 -3.19762,2.68187 0.2063,0.92833 0.82518,4.64169 1.0315,5.05428 0.2063,0.41259 0.92832,2.99131 0.92832,2.99131 l -3.19759,-0.41259 -3.50706,-1.03149 c 0,0 -0.41259,-2.16612 -0.41259,-2.78501 0,-0.6189 0.92832,-3.19761 0.92832,-3.19761 l 1.13464,-1.65038 0.20629,-0.72204 -0.51572,-1.03149 v -1.54723 h 1.13464 l 0.51572,0.92834 1.54723,0.61889 0.82519,0.41259 0.92834,-0.51574 0.10316,-1.13463 -1.54723,-0.72204 -3.30076,-0.92834 -2.37244,-0.2063 -1.75352,1.03149 -0.82518,1.23778 -0.61889,2.06297 -0.82518,0.51575 -0.72205,0.72204 -0.61889,-1.03149 0.82518,-1.44408 -0.30945,-0.92834 -1.54723,1.44408 c 0,0 -1.44407,0.10315 -0.82518,-0.51574 0.61888,-0.61889 2.16611,-1.44408 2.37241,-1.85668 0.20629,-0.41259 0.72205,-2.06297 0.82521,-2.57871 0.10313,-0.51575 1.03148,-2.06298 1.03148,-2.06298 l 0.72204,-1.23778 0.51573,-0.92834 -0.10314,-0.61889 -1.13463,-1.34093 -1.03148,-2.16613 h -1.4441 l -1.85666,-0.61889 c 0,0 0.30943,0.10315 -0.10316,0 -0.41259,-0.10315 -0.82518,0.82519 -0.82518,0.82519 l 0.30943,2.26927 c 0,0 0.20629,2.47557 0.20629,2.88817 0,0.41259 0,2.06297 0,2.06297 0,0 -1.65036,2.88816 -1.85666,3.30076 -0.20629,0.41259 -1.23777,2.57871 -1.54723,3.50705 -0.30945,0.92834 -0.82518,4.53854 -0.82518,4.53854 l -0.30946,1.85668 c 0,0 -0.92834,0.92834 -0.82518,-1.03149 0.10313,-1.95982 -0.10316,-1.95982 0.30943,-3.4039 0.41262,-1.44409 0.41262,-2.26927 0.61891,-2.88817 0.2063,-0.61889 0.30943,-2.47556 0.30943,-2.47556 0,0 -0.61888,1.54723 -1.03147,2.06297 -0.4126,0.51574 -1.2378,1.95983 -1.6504,1.95983 -0.41259,0 -2.06295,1.13463 -2.68187,1.23778 -0.61888,0.10315 -7.0141,1.03149 -7.0141,1.03149 z"
           id="path1" /><path
           style="fill:#ffffff;fill-opacity:1;stroke-width:0.529167"
           d="m 328.838,119.65247 1.23777,0.61889 0.61889,-0.92834 0.61889,1.03149 0.51575,0.82519 1.03148,-0.61889 0.41262,0.72204 1.03147,-0.10315 c 0,0 -1.54723,0.72204 -1.75352,1.23778 -0.2063,0.51575 0,1.44408 0,1.44408 h 1.34093 c 0,0 0.2063,1.23779 -0.20629,1.23779 -0.41259,0 -0.92835,-0.72204 -1.65039,0.10315 -0.72205,0.82519 -1.13464,2.06297 -1.13464,2.06297 0,0 -0.82519,1.03149 -1.03148,0.41259 -0.2063,-0.61889 -0.2063,-1.23778 -0.2063,-1.85667 0,-0.61889 0.2063,-1.65038 0.51576,-2.06297 0.30943,-0.4126 0.61888,-1.44409 0.61888,-1.44409 l -0.72205,-0.51574 -1.13464,-0.2063 -0.20629,-1.03148 z"
           id="path2" /><path
           style="fill:#ffffff;fill-opacity:1;stroke-width:0.529167"
           d="m 332.24189,106.24314 c 0,0 -0.20629,5.36373 -0.20629,6.39522 0,1.03149 0.20629,2.26927 0.20629,2.26927 0,0 0.41259,-2.88817 0.51575,-3.30076 0.10314,-0.41259 0.2063,-2.16612 0.2063,-2.16612 0,0 -0.10316,-1.65038 -0.10316,-2.06297 0,-0.4126 0.30945,-1.54723 0.30945,-1.54723 z"
           id="path3" /><path
           style="fill:#ffffff;fill-opacity:1;stroke-width:0.529167"
           d="m 336.6231,117.42878 c 0,0 0.38291,0.32822 0.38291,0.91172 0,0.58349 0.27352,0.89347 0.0729,1.22169 -0.20058,0.32822 -0.47408,0.91172 -0.47408,1.3311 0,0.41939 0.0729,0.72938 0.2735,1.23994 0.20058,0.51055 0.58351,0.92994 0.58351,0.92994 0,0 -0.0729,-0.91171 0,-1.13052 0.0729,-0.21881 0.29173,-0.47409 0.29173,-0.72937 0,-0.25528 -0.0547,-0.5288 0,-0.71114 0.0547,-0.18234 0.14589,-0.38292 0.32822,-0.61997 0.18235,-0.23704 0.49233,-0.43762 0.51056,-0.7476 0.0183,-0.30998 0.0547,-0.32822 0.0183,-0.72937 -0.0365,-0.40116 -0.41939,-1.13053 -0.41939,-1.13053 0,0 -0.47408,-0.1094 -0.61995,-0.1094 -0.14589,0 -0.94818,0.27351 -0.94818,0.27351 z"
           id="path4" /></g></g></g></svg>
